<svg width="37" height="30" viewBox="0 0 37 30" fill="none" xmlns="http://www.w3.org/2000/svg">
<path d="M0.75 8C0.75 6.75736 1.75736 5.75 3 5.75H11.5546C12.2656 5.75 12.9348 6.08607 13.3594 6.65637L14.4987 8.18675C15.2063 9.13726 16.3216 9.69737 17.5066 9.69737H29C30.2426 9.69737 31.25 10.7047 31.25 11.9474V27C31.25 28.2426 30.2426 29.25 29 29.25H3C1.75736 29.25 0.75 28.2426 0.75 27V8Z" stroke="#787F8D" stroke-width="1.5"/>
<path d="M4 4.94737V4C4 2.34315 5.34315 1 7 1H15.5546C16.5026 1 17.3948 1.44809 17.9609 2.2085L19.1003 3.73887C19.6664 4.49928 20.5586 4.94737 21.5066 4.94737H33C34.6569 4.94737 36 6.29051 36 7.94737V23C36 24.6569 34.6569 26 33 26H32" stroke="#787F8D" stroke-width="1.5"/>
</svg>
