<svg width="24" height="20" viewBox="0 0 24 20" fill="none" xmlns="http://www.w3.org/2000/svg">
<path d="M3 2.37894H15.4022C16.5068 2.37894 17.4022 3.27437 17.4022 4.37894V5.67279V16.7811C17.4022 17.8857 16.5068 18.7811 15.4022 18.7811H3C1.89543 18.7811 1 17.8857 1 16.7811V4.37893C1 3.27437 1.89543 2.37894 3 2.37894Z" stroke="white" stroke-width="2"/>
<mask id="path-2-outside-1" maskUnits="userSpaceOnUse" x="4.07111" y="0" width="19" height="17" fill="black">
<rect fill="white" x="4.07111" width="19" height="17"/>
<path fill-rule="evenodd" clip-rule="evenodd" d="M12.3644 12.8088L12.3703 12.8147L10.2089 14.9761L5.51045 10.2776C4.92466 9.69179 4.92466 8.74205 5.51045 8.15626L5.55049 8.11622C6.13627 7.53043 7.08602 7.53043 7.67181 8.11622L10.203 10.6474L19.4111 1.43934C19.9969 0.853553 20.9466 0.853553 21.5324 1.43934L21.5724 1.47938C22.1582 2.06517 22.1582 3.01492 21.5725 3.6007L12.3644 12.8088Z"/>
</mask>
<path fill-rule="evenodd" clip-rule="evenodd" d="M12.3644 12.8088L12.3703 12.8147L10.2089 14.9761L5.51045 10.2776C4.92466 9.69179 4.92466 8.74205 5.51045 8.15626L5.55049 8.11622C6.13627 7.53043 7.08602 7.53043 7.67181 8.11622L10.203 10.6474L19.4111 1.43934C19.9969 0.853553 20.9466 0.853553 21.5324 1.43934L21.5724 1.47938C22.1582 2.06517 22.1582 3.01492 21.5725 3.6007L12.3644 12.8088Z" fill="white"/>
<path d="M12.3644 12.8088L11.6573 12.1017L10.9502 12.8088L11.6573 13.5159L12.3644 12.8088ZM12.3703 12.8147L13.0774 13.5218L13.7845 12.8147L13.0774 12.1076L12.3703 12.8147ZM10.2089 14.9761L9.50184 15.6832L10.2089 16.3903L10.916 15.6832L10.2089 14.9761ZM5.51045 10.2776L4.80334 10.9847L4.80334 10.9847L5.51045 10.2776ZM5.51045 8.15626L4.80334 7.44915L4.80334 7.44915L5.51045 8.15626ZM5.55049 8.11622L6.25759 8.82333L6.25759 8.82333L5.55049 8.11622ZM7.67181 8.11622L6.9647 8.82333L6.9647 8.82333L7.67181 8.11622ZM10.203 10.6474L9.4959 11.3545L10.203 12.0616L10.9101 11.3545L10.203 10.6474ZM19.4111 1.43934L20.1182 2.14645L20.1182 2.14645L19.4111 1.43934ZM21.5324 1.43934L22.2395 0.732238L22.2395 0.732233L21.5324 1.43934ZM21.5724 1.47938L20.8653 2.18648L20.8653 2.18649L21.5724 1.47938ZM21.5725 3.6007L20.8653 2.8936L20.8653 2.8936L21.5725 3.6007ZM11.6573 13.5159L11.6632 13.5218L13.0774 12.1076L13.0715 12.1017L11.6573 13.5159ZM11.6632 12.1076L9.50184 14.269L10.916 15.6832L13.0774 13.5218L11.6632 12.1076ZM10.916 14.269L6.21755 9.57047L4.80334 10.9847L9.50184 15.6832L10.916 14.269ZM6.21755 9.57047C6.02229 9.37521 6.02229 9.05863 6.21755 8.86337L4.80334 7.44915C3.82703 8.42547 3.82703 10.0084 4.80334 10.9847L6.21755 9.57047ZM6.21755 8.86337L6.25759 8.82333L4.84338 7.40911L4.80334 7.44915L6.21755 8.86337ZM6.25759 8.82333C6.45286 8.62806 6.76944 8.62806 6.9647 8.82333L8.37892 7.40911C7.4026 6.4328 5.81969 6.4328 4.84338 7.40911L6.25759 8.82333ZM6.9647 8.82333L9.4959 11.3545L10.9101 9.94031L8.37891 7.40911L6.9647 8.82333ZM10.9101 11.3545L20.1182 2.14645L18.704 0.732233L9.4959 9.94031L10.9101 11.3545ZM20.1182 2.14645C20.3135 1.95118 20.63 1.95118 20.8253 2.14645L22.2395 0.732233C21.2632 -0.244078 19.6803 -0.244078 18.704 0.732233L20.1182 2.14645ZM20.8253 2.14644L20.8653 2.18648L22.2796 0.772279L22.2395 0.732238L20.8253 2.14644ZM20.8653 2.18649C21.0606 2.38175 21.0606 2.69833 20.8653 2.8936L22.2796 4.30781C23.2559 3.3315 23.2559 1.74858 22.2796 0.772274L20.8653 2.18649ZM20.8653 2.8936L11.6573 12.1017L13.0715 13.5159L22.2796 4.30781L20.8653 2.8936Z" fill="#3B4049" mask="url(#path-2-outside-1)"/>
</svg>
