<svg width="24" height="22" viewBox="0 0 24 22" fill="none" xmlns="http://www.w3.org/2000/svg">
<mask id="path-1-inside-1_126_26" fill="white">
<path fill-rule="evenodd" clip-rule="evenodd" d="M20.5 6H18V18H19.5C21.9853 18 24 15.9853 24 13.5V9.5C24 7.567 22.433 6 20.5 6ZM21 11C21 9.89543 20.1046 9 19 9V15C20.1046 15 21 14.1046 21 13V11Z"/>
</mask>
<path fill-rule="evenodd" clip-rule="evenodd" d="M20.5 6H18V18H19.5C21.9853 18 24 15.9853 24 13.5V9.5C24 7.567 22.433 6 20.5 6ZM21 11C21 9.89543 20.1046 9 19 9V15C20.1046 15 21 14.1046 21 13V11Z" fill="#C4C4C4"/>
<path d="M18 6V5H17V6H18ZM18 18H17V19H18V18ZM19 9V8H18V9H19ZM19 15H18V16H19V15ZM18 7H20.5V5H18V7ZM19 18V6H17V18H19ZM19.5 17H18V19H19.5V17ZM23 13.5C23 15.433 21.433 17 19.5 17V19C22.5376 19 25 16.5376 25 13.5H23ZM23 9.5V13.5H25V9.5H23ZM20.5 7C21.8807 7 23 8.11929 23 9.5H25C25 7.01472 22.9853 5 20.5 5V7ZM19 10C19.5523 10 20 10.4477 20 11H22C22 9.34315 20.6569 8 19 8V10ZM20 15V9H18V15H20ZM20 13C20 13.5523 19.5523 14 19 14V16C20.6569 16 22 14.6569 22 13H20ZM20 11V13H22V11H20Z" fill="#787F8D" mask="url(#path-1-inside-1_126_26)"/>
<mask id="path-3-inside-2_126_26" fill="white">
<path fill-rule="evenodd" clip-rule="evenodd" d="M19.25 4.125C19.25 1.84683 14.9407 0 9.625 0C4.30926 0 0 1.84683 0 4.125V13C0 17.9706 4.02944 22 9 22H10.25C15.2206 22 19.25 17.9706 19.25 13V4.125Z"/>
</mask>
<path fill-rule="evenodd" clip-rule="evenodd" d="M19.25 4.125C19.25 1.84683 14.9407 0 9.625 0C4.30926 0 0 1.84683 0 4.125V13C0 17.9706 4.02944 22 9 22H10.25C15.2206 22 19.25 17.9706 19.25 13V4.125Z" fill="#C4C4C4"/>
<path d="M9.625 1C12.1807 1 14.447 1.4459 16.037 2.12733C16.8338 2.46881 17.4147 2.84974 17.7819 3.2218C18.1448 3.58956 18.25 3.89362 18.25 4.125H20.25C20.25 3.21729 19.8165 2.43618 19.2054 1.81693C18.5985 1.20197 17.7698 0.694039 16.8248 0.289039C14.9313 -0.522484 12.3851 -1 9.625 -1V1ZM1 4.125C1 3.89362 1.10518 3.58956 1.46813 3.2218C1.83532 2.84974 2.41623 2.46881 3.21302 2.12733C4.80303 1.4459 7.06931 1 9.625 1V-1C6.86495 -1 4.31873 -0.522484 2.42518 0.289039C1.48018 0.694039 0.651544 1.20197 0.0446328 1.81693C-0.566521 2.43618 -1 3.21729 -1 4.125H1ZM1 13V4.125H-1V13H1ZM9 21C4.58172 21 1 17.4183 1 13H-1C-1 18.5228 3.47715 23 9 23V21ZM10.25 21H9V23H10.25V21ZM18.25 13C18.25 17.4183 14.6683 21 10.25 21V23C15.7728 23 20.25 18.5228 20.25 13H18.25ZM18.25 4.125V13H20.25V4.125H18.25Z" fill="#787F8D" mask="url(#path-3-inside-2_126_26)"/>
<ellipse cx="9.5" cy="5.5" rx="7.5" ry="2.5" fill="#291900"/>
<path d="M18.75 4.125C18.75 4.52546 18.5627 4.94878 18.1377 5.37942C17.7106 5.8122 17.0678 6.22488 16.2339 6.58224C14.568 7.2962 12.2318 7.75 9.625 7.75C7.01822 7.75 4.68195 7.2962 3.01606 6.58224C2.18222 6.22488 1.53938 5.8122 1.11225 5.37942C0.687254 4.94878 0.5 4.52546 0.5 4.125C0.5 3.72454 0.687254 3.30122 1.11225 2.87058C1.53938 2.4378 2.18222 2.02512 3.01606 1.66776C4.68195 0.953802 7.01822 0.5 9.625 0.5C12.2318 0.5 14.568 0.953802 16.2339 1.66776C17.0678 2.02512 17.7106 2.4378 18.1377 2.87058C18.5627 3.30122 18.75 3.72454 18.75 4.125Z" stroke="#787F8D"/>
</svg>
