<svg width="15" height="12" viewBox="0 0 15 12" fill="none" xmlns="http://www.w3.org/2000/svg">
<mask id="path-1-inside-1_115_8" fill="white">
<path d="M0 2C0 0.895431 0.895431 0 2 0H5.10381C5.74379 0 6.34512 0.30627 6.72146 0.823902L6.90099 1.07083C7.27733 1.58847 7.87866 1.89474 8.51864 1.89474H13C14.1046 1.89474 15 2.79017 15 3.89474V10C15 11.1046 14.1046 12 13 12H2C0.89543 12 0 11.1046 0 10V2Z"/>
</mask>
<path d="M0 2C0 0.895431 0.895431 0 2 0H5.10381C5.74379 0 6.34512 0.30627 6.72146 0.823902L6.90099 1.07083C7.27733 1.58847 7.87866 1.89474 8.51864 1.89474H13C14.1046 1.89474 15 2.79017 15 3.89474V10C15 11.1046 14.1046 12 13 12H2C0.89543 12 0 11.1046 0 10V2Z" fill="#787F8D"/>
<path d="M6.90099 1.07083L5.68775 1.95291L6.90099 1.07083ZM6.72146 0.823902L7.9347 -0.0581716L6.72146 0.823902ZM13.5 3.89474V10H16.5V3.89474H13.5ZM13 10.5H2V13.5H13V10.5ZM1.5 10V2H-1.5V10H1.5ZM2 1.5H5.10381V-1.5H2V1.5ZM5.50822 1.70598L5.68775 1.95291L8.11423 0.188761L7.9347 -0.0581716L5.50822 1.70598ZM8.51864 3.39474H13V0.394737H8.51864V3.39474ZM5.68775 1.95291C6.34635 2.85876 7.39867 3.39474 8.51864 3.39474V0.394737C8.35865 0.394737 8.20831 0.318169 8.11423 0.188761L5.68775 1.95291ZM5.10381 1.5C5.2638 1.5 5.41414 1.57657 5.50822 1.70598L7.9347 -0.0581716C7.2761 -0.964027 6.22378 -1.5 5.10381 -1.5V1.5ZM2 10.5C1.72386 10.5 1.5 10.2761 1.5 10H-1.5C-1.5 11.933 0.0670032 13.5 2 13.5V10.5ZM13.5 10C13.5 10.2761 13.2761 10.5 13 10.5V13.5C14.933 13.5 16.5 11.933 16.5 10H13.5ZM16.5 3.89474C16.5 1.96174 14.933 0.394737 13 0.394737V3.39474C13.2761 3.39474 13.5 3.61859 13.5 3.89474H16.5ZM1.5 2C1.5 1.72386 1.72386 1.5 2 1.5V-1.5C0.0670035 -1.5 -1.5 0.0670036 -1.5 2H1.5Z" fill="#787F8D" mask="url(#path-1-inside-1_115_8)"/>
</svg>
