<svg width="15" height="16" viewBox="0 0 15 16" fill="none" xmlns="http://www.w3.org/2000/svg">
<path d="M13 15.5L2 15.5C1.17157 15.5 0.5 14.8284 0.5 14L0.5 5.21421C0.5 4.86786 0.619687 4.53175 0.83888 4.26135C1.26865 3.73117 1.92149 2.92021 2.39585 2.30545C2.67204 1.94752 3.01227 1.49471 3.29866 1.11077C3.58522 0.726604 4.03455 0.5 4.51099 0.5L13 0.5C13.8284 0.5 14.5 1.17157 14.5 2L14.5 14C14.5 14.8284 13.8284 15.5 13 15.5Z" stroke="#787F8D"/>
<path d="M4.5 3.5V1.5H3.5L1.5 4V4.5H3.5C4.05228 4.5 4.5 4.05228 4.5 3.5Z" fill="#787F8D" stroke="#787F8D"/>
<rect x="6" y="3" width="6" height="1" rx="0.5" fill="#787F8D"/>
<rect x="3.00006" y="5.99997" width="9" height="1" rx="0.5" fill="#787F8D"/>
<rect x="3.00006" y="8.99997" width="9" height="1" rx="0.5" fill="#787F8D"/>
<rect x="3.00006" y="12" width="9" height="1" rx="0.5" fill="#787F8D"/>
</svg>
